<mxfile host="Electron" agent="Mozilla/5.0 (Windows NT 10.0; Win64; x64) AppleWebKit/537.36 (KHTML, like Gecko) draw.io/28.1.2 Chrome/138.0.7204.243 Electron/37.4.0 Safari/537.36" version="28.1.2" pages="2">
  <diagram name="sd1" id="x4vyvjrS_VT7jvUPFso6">
    <mxGraphModel dx="507" dy="333" grid="1" gridSize="10" guides="1" tooltips="1" connect="1" arrows="1" fold="1" page="1" pageScale="1" pageWidth="1169" pageHeight="827" math="0" shadow="0">
      <root>
        <mxCell id="zTi542Yw0DNZkE5UivS6-0" />
        <mxCell id="zTi542Yw0DNZkE5UivS6-1" parent="zTi542Yw0DNZkE5UivS6-0" />
        <mxCell id="zTi542Yw0DNZkE5UivS6-2" style="edgeStyle=orthogonalEdgeStyle;shape=connector;rounded=0;orthogonalLoop=1;jettySize=auto;html=1;exitX=0.5;exitY=1;exitDx=0;exitDy=0;labelBackgroundColor=default;strokeColor=default;fontFamily=Helvetica;fontSize=11;fontColor=default;endArrow=none;endFill=0;" parent="zTi542Yw0DNZkE5UivS6-1" source="zTi542Yw0DNZkE5UivS6-3" edge="1">
          <mxGeometry relative="1" as="geometry">
            <mxPoint x="580" y="220" as="targetPoint" />
          </mxGeometry>
        </mxCell>
        <mxCell id="zTi542Yw0DNZkE5UivS6-3" value="eSports Club&lt;div&gt;Eligibility&lt;/div&gt;" style="rounded=0;whiteSpace=wrap;html=1;fillColor=none;" parent="zTi542Yw0DNZkE5UivS6-1" vertex="1">
          <mxGeometry x="520" y="130" width="120" height="60" as="geometry" />
        </mxCell>
        <mxCell id="zTi542Yw0DNZkE5UivS6-4" style="edgeStyle=orthogonalEdgeStyle;rounded=0;orthogonalLoop=1;jettySize=auto;html=1;exitX=0.5;exitY=0;exitDx=0;exitDy=0;endArrow=none;endFill=0;" parent="zTi542Yw0DNZkE5UivS6-1" source="zTi542Yw0DNZkE5UivS6-5" edge="1">
          <mxGeometry relative="1" as="geometry">
            <mxPoint x="300" y="220" as="targetPoint" />
          </mxGeometry>
        </mxCell>
        <mxCell id="zTi542Yw0DNZkE5UivS6-5" value="Get pupil age" style="rounded=0;whiteSpace=wrap;html=1;fillColor=none;" parent="zTi542Yw0DNZkE5UivS6-1" vertex="1">
          <mxGeometry x="240" y="260" width="120" height="60" as="geometry" />
        </mxCell>
        <mxCell id="zTi542Yw0DNZkE5UivS6-9" value="Display able&lt;div&gt;to join&lt;/div&gt;" style="rounded=0;whiteSpace=wrap;html=1;fillColor=none;" parent="zTi542Yw0DNZkE5UivS6-1" vertex="1">
          <mxGeometry x="640" y="390" width="120" height="60" as="geometry" />
        </mxCell>
        <mxCell id="zTi542Yw0DNZkE5UivS6-14" value="" style="endArrow=none;html=1;rounded=0;" parent="zTi542Yw0DNZkE5UivS6-1" edge="1">
          <mxGeometry width="50" height="50" relative="1" as="geometry">
            <mxPoint x="300" y="220" as="sourcePoint" />
            <mxPoint x="780" y="220" as="targetPoint" />
          </mxGeometry>
        </mxCell>
        <mxCell id="zTi542Yw0DNZkE5UivS6-15" value="Yes" style="text;html=1;strokeColor=none;fillColor=none;align=right;verticalAlign=middle;whiteSpace=wrap;rounded=0;fontSize=11;fontFamily=Helvetica;fontColor=default;spacing=2;spacingRight=3;" parent="zTi542Yw0DNZkE5UivS6-1" vertex="1">
          <mxGeometry x="370" y="320" width="30" height="30" as="geometry" />
        </mxCell>
        <mxCell id="zTi542Yw0DNZkE5UivS6-16" value="Yes" style="text;html=1;strokeColor=none;fillColor=none;align=right;verticalAlign=middle;whiteSpace=wrap;rounded=0;fontSize=11;fontFamily=Helvetica;fontColor=default;spacing=2;spacingRight=3;" parent="zTi542Yw0DNZkE5UivS6-1" vertex="1">
          <mxGeometry x="690" y="350" width="30" height="30" as="geometry" />
        </mxCell>
        <mxCell id="zTi542Yw0DNZkE5UivS6-19" value="Is age &amp;gt;= 13 and has&lt;div&gt;parental permission,&lt;div&gt;or&lt;/div&gt;&lt;div&gt;age = 12 and has&lt;/div&gt;&lt;div&gt;&lt;span style=&quot;background-color: transparent; color: light-dark(rgb(0, 0, 0), rgb(255, 255, 255));&quot;&gt;teacher permission?&amp;nbsp;&lt;/span&gt;&lt;/div&gt;&lt;/div&gt;" style="shape=hexagon;perimeter=hexagonPerimeter2;whiteSpace=wrap;html=1;fixedSize=1;fillColor=none;" parent="zTi542Yw0DNZkE5UivS6-1" vertex="1">
          <mxGeometry x="700" y="260" width="160" height="90" as="geometry" />
        </mxCell>
        <mxCell id="225vPOaHnL1gHCbmEkO4-0" style="edgeStyle=orthogonalEdgeStyle;rounded=0;orthogonalLoop=1;jettySize=auto;html=1;exitX=0.5;exitY=0;exitDx=0;exitDy=0;endArrow=none;endFill=0;" edge="1" parent="zTi542Yw0DNZkE5UivS6-1" source="zTi542Yw0DNZkE5UivS6-22">
          <mxGeometry relative="1" as="geometry">
            <mxPoint x="460" y="220" as="targetPoint" />
          </mxGeometry>
        </mxCell>
        <mxCell id="zTi542Yw0DNZkE5UivS6-22" value="Aged 13 or more?" style="shape=hexagon;perimeter=hexagonPerimeter2;whiteSpace=wrap;html=1;fixedSize=1;fillColor=none;" parent="zTi542Yw0DNZkE5UivS6-1" vertex="1">
          <mxGeometry x="400" y="260" width="120" height="60" as="geometry" />
        </mxCell>
        <mxCell id="zTi542Yw0DNZkE5UivS6-31" style="edgeStyle=orthogonalEdgeStyle;shape=connector;rounded=0;orthogonalLoop=1;jettySize=auto;html=1;exitX=0.5;exitY=0;exitDx=0;exitDy=0;strokeColor=default;align=center;verticalAlign=middle;fontFamily=Helvetica;fontSize=11;fontColor=default;labelBackgroundColor=default;endArrow=none;endFill=0;" parent="zTi542Yw0DNZkE5UivS6-1" edge="1">
          <mxGeometry relative="1" as="geometry">
            <mxPoint x="780" y="220" as="targetPoint" />
            <mxPoint x="780" y="260" as="sourcePoint" />
          </mxGeometry>
        </mxCell>
        <mxCell id="zTi542Yw0DNZkE5UivS6-34" value="Ask about&lt;div&gt;parental permission&lt;/div&gt;" style="rounded=0;whiteSpace=wrap;html=1;fillColor=none;" parent="zTi542Yw0DNZkE5UivS6-1" vertex="1">
          <mxGeometry x="320" y="360" width="120" height="60" as="geometry" />
        </mxCell>
        <mxCell id="zTi542Yw0DNZkE5UivS6-38" value="" style="endArrow=none;html=1;rounded=0;strokeColor=default;align=center;verticalAlign=middle;fontFamily=Helvetica;fontSize=11;fontColor=default;labelBackgroundColor=default;exitX=0.5;exitY=0;exitDx=0;exitDy=0;entryX=0.375;entryY=1;entryDx=0;entryDy=0;" parent="zTi542Yw0DNZkE5UivS6-1" source="zTi542Yw0DNZkE5UivS6-34" target="zTi542Yw0DNZkE5UivS6-22" edge="1">
          <mxGeometry width="50" height="50" relative="1" as="geometry">
            <mxPoint x="300" y="360" as="sourcePoint" />
            <mxPoint x="450" y="340" as="targetPoint" />
          </mxGeometry>
        </mxCell>
        <mxCell id="M2x0D-HvSped527veQFM-3" style="shape=connector;rounded=0;orthogonalLoop=1;jettySize=auto;html=1;exitX=0.5;exitY=0;exitDx=0;exitDy=0;strokeColor=default;align=center;verticalAlign=middle;fontFamily=Helvetica;fontSize=11;fontColor=default;labelBackgroundColor=default;endArrow=none;endFill=0;entryX=0.625;entryY=1;entryDx=0;entryDy=0;" parent="zTi542Yw0DNZkE5UivS6-1" source="225vPOaHnL1gHCbmEkO4-2" target="zTi542Yw0DNZkE5UivS6-22" edge="1">
          <mxGeometry relative="1" as="geometry">
            <mxPoint x="475" y="340" as="targetPoint" />
            <mxPoint x="540" y="360" as="sourcePoint" />
          </mxGeometry>
        </mxCell>
        <mxCell id="M2x0D-HvSped527veQFM-9" style="edgeStyle=none;shape=connector;rounded=0;orthogonalLoop=1;jettySize=auto;html=1;exitX=0.5;exitY=0;exitDx=0;exitDy=0;entryX=0.625;entryY=1;entryDx=0;entryDy=0;strokeColor=default;align=center;verticalAlign=middle;fontFamily=Helvetica;fontSize=11;fontColor=default;labelBackgroundColor=default;endArrow=none;endFill=0;" parent="zTi542Yw0DNZkE5UivS6-1" source="M2x0D-HvSped527veQFM-5" target="zTi542Yw0DNZkE5UivS6-19" edge="1">
          <mxGeometry relative="1" as="geometry" />
        </mxCell>
        <mxCell id="M2x0D-HvSped527veQFM-5" value="Display not able&lt;div&gt;to join&lt;/div&gt;" style="rounded=0;whiteSpace=wrap;html=1;fillColor=none;" parent="zTi542Yw0DNZkE5UivS6-1" vertex="1">
          <mxGeometry x="800" y="390" width="120" height="60" as="geometry" />
        </mxCell>
        <mxCell id="M2x0D-HvSped527veQFM-6" value="No" style="text;html=1;strokeColor=none;fillColor=none;align=left;verticalAlign=middle;whiteSpace=wrap;rounded=0;fontSize=11;fontFamily=Helvetica;fontColor=default;spacing=2;spacingRight=3;" parent="zTi542Yw0DNZkE5UivS6-1" vertex="1">
          <mxGeometry x="520" y="320" width="30" height="30" as="geometry" />
        </mxCell>
        <mxCell id="M2x0D-HvSped527veQFM-7" value="No" style="text;html=1;strokeColor=none;fillColor=none;align=left;verticalAlign=middle;whiteSpace=wrap;rounded=0;fontSize=11;fontFamily=Helvetica;fontColor=default;spacing=2;spacingRight=3;" parent="zTi542Yw0DNZkE5UivS6-1" vertex="1">
          <mxGeometry x="840" y="350" width="30" height="30" as="geometry" />
        </mxCell>
        <mxCell id="M2x0D-HvSped527veQFM-8" style="edgeStyle=none;shape=connector;rounded=0;orthogonalLoop=1;jettySize=auto;html=1;exitX=0.5;exitY=0;exitDx=0;exitDy=0;strokeColor=default;align=center;verticalAlign=middle;fontFamily=Helvetica;fontSize=11;fontColor=default;labelBackgroundColor=default;endArrow=none;endFill=0;entryX=0.375;entryY=1;entryDx=0;entryDy=0;" parent="zTi542Yw0DNZkE5UivS6-1" source="zTi542Yw0DNZkE5UivS6-9" target="zTi542Yw0DNZkE5UivS6-19" edge="1">
          <mxGeometry relative="1" as="geometry">
            <mxPoint x="770" y="412" as="targetPoint" />
          </mxGeometry>
        </mxCell>
        <mxCell id="225vPOaHnL1gHCbmEkO4-2" value="Aged 12?" style="shape=hexagon;perimeter=hexagonPerimeter2;whiteSpace=wrap;html=1;fixedSize=1;fillColor=none;" vertex="1" parent="zTi542Yw0DNZkE5UivS6-1">
          <mxGeometry x="480" y="360" width="120" height="60" as="geometry" />
        </mxCell>
        <mxCell id="225vPOaHnL1gHCbmEkO4-3" value="Ask about teacher&amp;nbsp;&lt;span style=&quot;background-color: transparent; color: light-dark(rgb(0, 0, 0), rgb(255, 255, 255));&quot;&gt;permission&lt;/span&gt;" style="rounded=0;whiteSpace=wrap;html=1;fillColor=none;" vertex="1" parent="zTi542Yw0DNZkE5UivS6-1">
          <mxGeometry x="480" y="450" width="120" height="60" as="geometry" />
        </mxCell>
        <mxCell id="225vPOaHnL1gHCbmEkO4-4" style="edgeStyle=orthogonalEdgeStyle;shape=connector;rounded=0;orthogonalLoop=1;jettySize=auto;html=1;exitX=0.5;exitY=1;exitDx=0;exitDy=0;entryX=0.5;entryY=0;entryDx=0;entryDy=0;strokeColor=default;align=center;verticalAlign=middle;fontFamily=Helvetica;fontSize=11;fontColor=default;labelBackgroundColor=default;endArrow=none;endFill=0;" edge="1" parent="zTi542Yw0DNZkE5UivS6-1" source="225vPOaHnL1gHCbmEkO4-2" target="225vPOaHnL1gHCbmEkO4-3">
          <mxGeometry relative="1" as="geometry" />
        </mxCell>
        <mxCell id="225vPOaHnL1gHCbmEkO4-5" value="Yes" style="text;html=1;strokeColor=none;fillColor=none;align=right;verticalAlign=middle;whiteSpace=wrap;rounded=0;fontSize=11;fontFamily=Helvetica;fontColor=default;spacing=2;spacingRight=3;" vertex="1" parent="zTi542Yw0DNZkE5UivS6-1">
          <mxGeometry x="510" y="420" width="30" height="30" as="geometry" />
        </mxCell>
      </root>
    </mxGraphModel>
  </diagram>
  <diagram id="gd1SCO8zGrmLGN10B-iM" name="sd3">
    <mxGraphModel dx="728" dy="568" grid="1" gridSize="10" guides="1" tooltips="1" connect="1" arrows="1" fold="1" page="1" pageScale="1" pageWidth="1169" pageHeight="827" math="0" shadow="0">
      <root>
        <mxCell id="0" />
        <mxCell id="1" parent="0" />
        <mxCell id="2BwgFsl3VLa_b2nYBKN8-46" style="edgeStyle=orthogonalEdgeStyle;shape=connector;rounded=0;orthogonalLoop=1;jettySize=auto;html=1;exitX=0.5;exitY=1;exitDx=0;exitDy=0;labelBackgroundColor=default;strokeColor=default;fontFamily=Helvetica;fontSize=11;fontColor=default;endArrow=none;endFill=0;" parent="1" source="2BwgFsl3VLa_b2nYBKN8-1" edge="1">
          <mxGeometry relative="1" as="geometry">
            <mxPoint x="580" y="210" as="targetPoint" />
          </mxGeometry>
        </mxCell>
        <mxCell id="2BwgFsl3VLa_b2nYBKN8-1" value="UoB Book Shop" style="rounded=0;whiteSpace=wrap;html=1;fillColor=none;" parent="1" vertex="1">
          <mxGeometry x="520" y="120" width="120" height="60" as="geometry" />
        </mxCell>
        <mxCell id="2BwgFsl3VLa_b2nYBKN8-25" style="edgeStyle=orthogonalEdgeStyle;rounded=0;orthogonalLoop=1;jettySize=auto;html=1;exitX=0.5;exitY=0;exitDx=0;exitDy=0;endArrow=none;endFill=0;" parent="1" source="2BwgFsl3VLa_b2nYBKN8-2" edge="1">
          <mxGeometry relative="1" as="geometry">
            <mxPoint x="140" y="210" as="targetPoint" />
          </mxGeometry>
        </mxCell>
        <mxCell id="2BwgFsl3VLa_b2nYBKN8-2" value="Get amount&lt;div&gt;to pay&lt;/div&gt;" style="rounded=0;whiteSpace=wrap;html=1;fillColor=none;" parent="1" vertex="1">
          <mxGeometry x="80" y="240" width="120" height="60" as="geometry" />
        </mxCell>
        <mxCell id="2BwgFsl3VLa_b2nYBKN8-26" style="edgeStyle=orthogonalEdgeStyle;rounded=0;orthogonalLoop=1;jettySize=auto;html=1;exitX=0.5;exitY=0;exitDx=0;exitDy=0;endArrow=none;endFill=0;" parent="1" source="2BwgFsl3VLa_b2nYBKN8-3" edge="1">
          <mxGeometry relative="1" as="geometry">
            <mxPoint x="300" y="210" as="targetPoint" />
          </mxGeometry>
        </mxCell>
        <mxCell id="2BwgFsl3VLa_b2nYBKN8-3" value="Get discount type" style="rounded=0;whiteSpace=wrap;html=1;fillColor=none;" parent="1" vertex="1">
          <mxGeometry x="240" y="240" width="120" height="60" as="geometry" />
        </mxCell>
        <mxCell id="JrPhyKwZefGcbtjGruJl-4" style="edgeStyle=none;shape=connector;rounded=0;orthogonalLoop=1;jettySize=auto;html=1;exitX=0.5;exitY=0;exitDx=0;exitDy=0;entryX=0.375;entryY=1;entryDx=0;entryDy=0;labelBackgroundColor=default;strokeColor=default;fontFamily=Helvetica;fontSize=11;fontColor=default;endArrow=none;endFill=0;" parent="1" source="2BwgFsl3VLa_b2nYBKN8-5" target="CmPyJKJDkWwYl_QMhDiX-8" edge="1">
          <mxGeometry relative="1" as="geometry" />
        </mxCell>
        <mxCell id="2BwgFsl3VLa_b2nYBKN8-5" value="Set discount rate&lt;br&gt;to 10" style="rounded=0;whiteSpace=wrap;html=1;fillColor=none;" parent="1" vertex="1">
          <mxGeometry x="160" y="440" width="120" height="60" as="geometry" />
        </mxCell>
        <mxCell id="CmPyJKJDkWwYl_QMhDiX-18" style="edgeStyle=orthogonalEdgeStyle;shape=connector;rounded=0;orthogonalLoop=1;jettySize=auto;html=1;exitX=0.5;exitY=0;exitDx=0;exitDy=0;entryX=0.5;entryY=1;entryDx=0;entryDy=0;labelBackgroundColor=default;strokeColor=default;fontFamily=Helvetica;fontSize=11;fontColor=default;endArrow=none;endFill=0;" parent="1" source="2BwgFsl3VLa_b2nYBKN8-9" target="CmPyJKJDkWwYl_QMhDiX-11" edge="1">
          <mxGeometry relative="1" as="geometry" />
        </mxCell>
        <mxCell id="UscxXCK1-TSAxhxeFgae-2" style="edgeStyle=orthogonalEdgeStyle;rounded=0;orthogonalLoop=1;jettySize=auto;html=1;exitX=0.5;exitY=1;exitDx=0;exitDy=0;entryX=0.5;entryY=0;entryDx=0;entryDy=0;endArrow=none;endFill=0;" edge="1" parent="1" source="2BwgFsl3VLa_b2nYBKN8-9" target="UscxXCK1-TSAxhxeFgae-1">
          <mxGeometry relative="1" as="geometry" />
        </mxCell>
        <mxCell id="2BwgFsl3VLa_b2nYBKN8-9" value="Calculate discount:&lt;br&gt;amount to pay&amp;nbsp;&lt;span style=&quot;color: rgb(31, 31, 31); text-align: left; background-color: rgb(255, 255, 255);&quot;&gt;&lt;font style=&quot;font-size: 12px;&quot;&gt;×&lt;/font&gt;&lt;/span&gt;&lt;br&gt;(discount rate&amp;nbsp;&lt;span style=&quot;color: rgb(31, 31, 31); font-family: &amp;quot;Google Sans&amp;quot;, Arial, sans-serif; text-align: left; background-color: rgb(255, 255, 255);&quot;&gt;&lt;font style=&quot;font-size: 12px;&quot;&gt;÷&amp;nbsp;&lt;/font&gt;&lt;/span&gt;100)" style="rounded=0;whiteSpace=wrap;html=1;fillColor=none;" parent="1" vertex="1">
          <mxGeometry x="480" y="340" width="120" height="60" as="geometry" />
        </mxCell>
        <mxCell id="_ii_MElEqdxS3bVGn6bL-7" style="edgeStyle=none;shape=connector;rounded=0;orthogonalLoop=1;jettySize=auto;html=1;exitX=0.5;exitY=1;exitDx=0;exitDy=0;labelBackgroundColor=default;strokeColor=default;fontFamily=Helvetica;fontSize=12;fontColor=default;endArrow=none;endFill=0;" parent="1" source="2BwgFsl3VLa_b2nYBKN8-10" edge="1">
          <mxGeometry relative="1" as="geometry">
            <mxPoint x="540" y="620" as="targetPoint" />
          </mxGeometry>
        </mxCell>
        <mxCell id="2BwgFsl3VLa_b2nYBKN8-10" value="Update amount&lt;br&gt;to pay" style="rounded=0;whiteSpace=wrap;html=1;fillColor=none;" parent="1" vertex="1">
          <mxGeometry x="480" y="540" width="120" height="60" as="geometry" />
        </mxCell>
        <mxCell id="CmPyJKJDkWwYl_QMhDiX-17" style="edgeStyle=orthogonalEdgeStyle;shape=connector;rounded=0;orthogonalLoop=1;jettySize=auto;html=1;exitX=0.5;exitY=0;exitDx=0;exitDy=0;entryX=0.5;entryY=1;entryDx=0;entryDy=0;labelBackgroundColor=default;strokeColor=default;fontFamily=Helvetica;fontSize=11;fontColor=default;endArrow=none;endFill=0;" parent="1" source="2BwgFsl3VLa_b2nYBKN8-11" target="CmPyJKJDkWwYl_QMhDiX-9" edge="1">
          <mxGeometry relative="1" as="geometry" />
        </mxCell>
        <mxCell id="2BwgFsl3VLa_b2nYBKN8-11" value="Set discount rate&lt;br&gt;to 20" style="rounded=0;whiteSpace=wrap;html=1;fillColor=none;" parent="1" vertex="1">
          <mxGeometry x="320" y="540" width="120" height="60" as="geometry" />
        </mxCell>
        <mxCell id="2BwgFsl3VLa_b2nYBKN8-35" style="edgeStyle=orthogonalEdgeStyle;rounded=0;orthogonalLoop=1;jettySize=auto;html=1;exitX=0.5;exitY=0;exitDx=0;exitDy=0;endArrow=none;endFill=0;" parent="1" source="2BwgFsl3VLa_b2nYBKN8-12" edge="1">
          <mxGeometry relative="1" as="geometry">
            <mxPoint x="700" y="210" as="targetPoint" />
          </mxGeometry>
        </mxCell>
        <mxCell id="2BwgFsl3VLa_b2nYBKN8-12" value="Get voucher" style="rounded=0;whiteSpace=wrap;html=1;fillColor=none;" parent="1" vertex="1">
          <mxGeometry x="640" y="240" width="120" height="60" as="geometry" />
        </mxCell>
        <mxCell id="CmPyJKJDkWwYl_QMhDiX-19" style="edgeStyle=orthogonalEdgeStyle;shape=connector;rounded=0;orthogonalLoop=1;jettySize=auto;html=1;exitX=0.5;exitY=0;exitDx=0;exitDy=0;entryX=0.5;entryY=1;entryDx=0;entryDy=0;labelBackgroundColor=default;strokeColor=default;fontFamily=Helvetica;fontSize=11;fontColor=default;endArrow=none;endFill=0;" parent="1" source="2BwgFsl3VLa_b2nYBKN8-14" target="CmPyJKJDkWwYl_QMhDiX-12" edge="1">
          <mxGeometry relative="1" as="geometry" />
        </mxCell>
        <mxCell id="2BwgFsl3VLa_b2nYBKN8-14" value="Reduce amount to pay by £10" style="rounded=0;whiteSpace=wrap;html=1;fillColor=none;" parent="1" vertex="1">
          <mxGeometry x="640" y="440" width="120" height="60" as="geometry" />
        </mxCell>
        <mxCell id="re6lLt0kuD69fnyGJ5kz-13" style="edgeStyle=none;shape=connector;rounded=0;orthogonalLoop=1;jettySize=auto;html=1;exitX=0.5;exitY=0;exitDx=0;exitDy=0;labelBackgroundColor=default;strokeColor=default;fontFamily=Helvetica;fontSize=11;fontColor=default;endArrow=none;endFill=0;" parent="1" source="2BwgFsl3VLa_b2nYBKN8-21" edge="1">
          <mxGeometry relative="1" as="geometry">
            <mxPoint x="1021" y="210" as="targetPoint" />
          </mxGeometry>
        </mxCell>
        <mxCell id="2BwgFsl3VLa_b2nYBKN8-21" value="Display amount&lt;div&gt;to pay&lt;/div&gt;" style="rounded=0;whiteSpace=wrap;html=1;fillColor=none;" parent="1" vertex="1">
          <mxGeometry x="960.5" y="240" width="120" height="60" as="geometry" />
        </mxCell>
        <mxCell id="_ii_MElEqdxS3bVGn6bL-5" style="edgeStyle=none;shape=connector;rounded=0;orthogonalLoop=1;jettySize=auto;html=1;exitX=0.5;exitY=0;exitDx=0;exitDy=0;labelBackgroundColor=default;strokeColor=default;fontFamily=Helvetica;fontSize=12;fontColor=default;endArrow=none;endFill=0;" parent="1" source="2BwgFsl3VLa_b2nYBKN8-22" edge="1">
          <mxGeometry relative="1" as="geometry">
            <mxPoint x="620" y="620" as="targetPoint" />
          </mxGeometry>
        </mxCell>
        <mxCell id="2BwgFsl3VLa_b2nYBKN8-22" value="Display amount&lt;br&gt;to pay" style="rounded=0;whiteSpace=wrap;html=1;fillColor=none;" parent="1" vertex="1">
          <mxGeometry x="560" y="640" width="120" height="60" as="geometry" />
        </mxCell>
        <mxCell id="2BwgFsl3VLa_b2nYBKN8-23" value="" style="endArrow=none;html=1;rounded=0;" parent="1" edge="1">
          <mxGeometry width="50" height="50" relative="1" as="geometry">
            <mxPoint x="140" y="210" as="sourcePoint" />
            <mxPoint x="1020" y="210" as="targetPoint" />
          </mxGeometry>
        </mxCell>
        <mxCell id="2BwgFsl3VLa_b2nYBKN8-47" value="Yes" style="text;html=1;strokeColor=none;fillColor=none;align=right;verticalAlign=middle;whiteSpace=wrap;rounded=0;fontSize=11;fontFamily=Helvetica;fontColor=default;spacing=2;spacingRight=3;" parent="1" vertex="1">
          <mxGeometry x="350" y="500" width="30" height="30" as="geometry" />
        </mxCell>
        <mxCell id="2BwgFsl3VLa_b2nYBKN8-48" value="Yes" style="text;html=1;strokeColor=none;fillColor=none;align=left;verticalAlign=middle;whiteSpace=wrap;rounded=0;fontSize=11;fontFamily=Helvetica;fontColor=default;spacing=2;spacingRight=3;" parent="1" vertex="1">
          <mxGeometry x="230" y="399" width="30" height="30" as="geometry" />
        </mxCell>
        <mxCell id="2BwgFsl3VLa_b2nYBKN8-49" value="Yes" style="text;html=1;strokeColor=none;fillColor=none;align=right;verticalAlign=middle;whiteSpace=wrap;rounded=0;fontSize=11;fontFamily=Helvetica;fontColor=default;spacing=2;spacingRight=3;" parent="1" vertex="1">
          <mxGeometry x="510" y="300" width="30" height="30" as="geometry" />
        </mxCell>
        <mxCell id="2BwgFsl3VLa_b2nYBKN8-50" value="Yes" style="text;html=1;strokeColor=none;fillColor=none;align=right;verticalAlign=middle;whiteSpace=wrap;rounded=0;fontSize=11;fontFamily=Helvetica;fontColor=default;spacing=2;spacingRight=3;" parent="1" vertex="1">
          <mxGeometry x="670" y="399" width="30" height="30" as="geometry" />
        </mxCell>
        <mxCell id="CmPyJKJDkWwYl_QMhDiX-5" style="edgeStyle=orthogonalEdgeStyle;rounded=0;orthogonalLoop=1;jettySize=auto;html=1;exitX=0.5;exitY=0;exitDx=0;exitDy=0;entryX=0.5;entryY=1;entryDx=0;entryDy=0;endArrow=none;endFill=0;" parent="1" source="CmPyJKJDkWwYl_QMhDiX-3" target="2BwgFsl3VLa_b2nYBKN8-14" edge="1">
          <mxGeometry relative="1" as="geometry" />
        </mxCell>
        <mxCell id="CmPyJKJDkWwYl_QMhDiX-3" value="Display voucher&lt;div&gt;message&lt;/div&gt;" style="rounded=0;whiteSpace=wrap;html=1;fillColor=none;" parent="1" vertex="1">
          <mxGeometry x="640" y="540" width="120" height="60" as="geometry" />
        </mxCell>
        <mxCell id="re6lLt0kuD69fnyGJ5kz-16" style="edgeStyle=none;shape=connector;rounded=0;orthogonalLoop=1;jettySize=auto;html=1;exitX=0.5;exitY=0;exitDx=0;exitDy=0;labelBackgroundColor=default;strokeColor=default;fontFamily=Helvetica;fontSize=11;fontColor=default;endArrow=none;endFill=0;entryX=0.5;entryY=1;entryDx=0;entryDy=0;" parent="1" source="CmPyJKJDkWwYl_QMhDiX-8" edge="1" target="2BwgFsl3VLa_b2nYBKN8-3">
          <mxGeometry relative="1" as="geometry">
            <mxPoint x="319.939393939394" y="330" as="targetPoint" />
          </mxGeometry>
        </mxCell>
        <mxCell id="CmPyJKJDkWwYl_QMhDiX-8" value="Student?" style="shape=hexagon;perimeter=hexagonPerimeter2;whiteSpace=wrap;html=1;fixedSize=1;fillColor=none;" parent="1" vertex="1">
          <mxGeometry x="240" y="340" width="120" height="60" as="geometry" />
        </mxCell>
        <mxCell id="JrPhyKwZefGcbtjGruJl-5" style="edgeStyle=none;shape=connector;rounded=0;orthogonalLoop=1;jettySize=auto;html=1;exitX=0.5;exitY=0;exitDx=0;exitDy=0;entryX=0.625;entryY=1;entryDx=0;entryDy=0;labelBackgroundColor=default;strokeColor=default;fontFamily=Helvetica;fontSize=11;fontColor=default;endArrow=none;endFill=0;" parent="1" source="CmPyJKJDkWwYl_QMhDiX-9" target="CmPyJKJDkWwYl_QMhDiX-8" edge="1">
          <mxGeometry relative="1" as="geometry" />
        </mxCell>
        <mxCell id="CmPyJKJDkWwYl_QMhDiX-9" value="Staff?" style="shape=hexagon;perimeter=hexagonPerimeter2;whiteSpace=wrap;html=1;fixedSize=1;fillColor=none;" parent="1" vertex="1">
          <mxGeometry x="320" y="440" width="120" height="60" as="geometry" />
        </mxCell>
        <mxCell id="re6lLt0kuD69fnyGJ5kz-14" style="edgeStyle=none;shape=connector;rounded=0;orthogonalLoop=1;jettySize=auto;html=1;exitX=0.5;exitY=0;exitDx=0;exitDy=0;labelBackgroundColor=default;strokeColor=default;fontFamily=Helvetica;fontSize=11;fontColor=default;endArrow=none;endFill=0;" parent="1" source="CmPyJKJDkWwYl_QMhDiX-11" edge="1">
          <mxGeometry relative="1" as="geometry">
            <mxPoint x="539.939393939394" y="210" as="targetPoint" />
          </mxGeometry>
        </mxCell>
        <mxCell id="CmPyJKJDkWwYl_QMhDiX-11" value="Is discount&lt;br&gt;rate not equal&lt;br&gt;to zero?" style="shape=hexagon;perimeter=hexagonPerimeter2;whiteSpace=wrap;html=1;fixedSize=1;fillColor=none;" parent="1" vertex="1">
          <mxGeometry x="480" y="240" width="120" height="60" as="geometry" />
        </mxCell>
        <mxCell id="re6lLt0kuD69fnyGJ5kz-11" style="edgeStyle=none;shape=connector;rounded=0;orthogonalLoop=1;jettySize=auto;html=1;exitX=0.5;exitY=0;exitDx=0;exitDy=0;entryX=0.5;entryY=1;entryDx=0;entryDy=0;labelBackgroundColor=default;strokeColor=default;fontFamily=Helvetica;fontSize=11;fontColor=default;endArrow=none;endFill=0;" parent="1" source="CmPyJKJDkWwYl_QMhDiX-12" target="2BwgFsl3VLa_b2nYBKN8-12" edge="1">
          <mxGeometry relative="1" as="geometry" />
        </mxCell>
        <mxCell id="CmPyJKJDkWwYl_QMhDiX-12" value="Has a voucher?" style="shape=hexagon;perimeter=hexagonPerimeter2;whiteSpace=wrap;html=1;fixedSize=1;fillColor=none;" parent="1" vertex="1">
          <mxGeometry x="640" y="340" width="120" height="60" as="geometry" />
        </mxCell>
        <mxCell id="JrPhyKwZefGcbtjGruJl-6" value="No" style="text;html=1;strokeColor=none;fillColor=none;align=right;verticalAlign=middle;whiteSpace=wrap;rounded=0;fontSize=11;fontFamily=Helvetica;fontColor=default;spacing=2;spacingRight=3;" parent="1" vertex="1">
          <mxGeometry x="340" y="399" width="30" height="30" as="geometry" />
        </mxCell>
        <mxCell id="re6lLt0kuD69fnyGJ5kz-1" style="edgeStyle=orthogonalEdgeStyle;shape=connector;rounded=0;orthogonalLoop=1;jettySize=auto;html=1;exitX=0.5;exitY=0;exitDx=0;exitDy=0;entryX=0.5;entryY=1;entryDx=0;entryDy=0;labelBackgroundColor=default;strokeColor=default;fontFamily=Helvetica;fontSize=11;fontColor=default;endArrow=none;endFill=0;" parent="1" source="re6lLt0kuD69fnyGJ5kz-2" target="re6lLt0kuD69fnyGJ5kz-4" edge="1">
          <mxGeometry relative="1" as="geometry" />
        </mxCell>
        <mxCell id="re6lLt0kuD69fnyGJ5kz-2" value="Display no&lt;div&gt;change message&lt;/div&gt;" style="rounded=0;whiteSpace=wrap;html=1;fillColor=none;" parent="1" vertex="1">
          <mxGeometry x="800" y="440" width="120" height="60" as="geometry" />
        </mxCell>
        <mxCell id="re6lLt0kuD69fnyGJ5kz-3" style="edgeStyle=orthogonalEdgeStyle;shape=connector;rounded=0;orthogonalLoop=1;jettySize=auto;html=1;exitX=0.5;exitY=0;exitDx=0;exitDy=0;entryX=0.5;entryY=1;entryDx=0;entryDy=0;labelBackgroundColor=default;strokeColor=default;fontFamily=Helvetica;fontSize=11;fontColor=default;endArrow=none;endFill=0;" parent="1" source="re6lLt0kuD69fnyGJ5kz-4" target="re6lLt0kuD69fnyGJ5kz-6" edge="1">
          <mxGeometry relative="1" as="geometry" />
        </mxCell>
        <mxCell id="re6lLt0kuD69fnyGJ5kz-4" value="Set amount to pay&lt;br&gt;to zero" style="rounded=0;whiteSpace=wrap;html=1;fillColor=none;" parent="1" vertex="1">
          <mxGeometry x="800" y="340" width="120" height="60" as="geometry" />
        </mxCell>
        <mxCell id="re6lLt0kuD69fnyGJ5kz-5" value="Yes" style="text;html=1;strokeColor=none;fillColor=none;align=right;verticalAlign=middle;whiteSpace=wrap;rounded=0;fontSize=11;fontFamily=Helvetica;fontColor=default;spacing=2;spacingRight=3;" parent="1" vertex="1">
          <mxGeometry x="830" y="300" width="30" height="30" as="geometry" />
        </mxCell>
        <mxCell id="re6lLt0kuD69fnyGJ5kz-12" style="edgeStyle=none;shape=connector;rounded=0;orthogonalLoop=1;jettySize=auto;html=1;exitX=0.5;exitY=0;exitDx=0;exitDy=0;labelBackgroundColor=default;strokeColor=default;fontFamily=Helvetica;fontSize=11;fontColor=default;endArrow=none;endFill=0;" parent="1" source="re6lLt0kuD69fnyGJ5kz-6" edge="1">
          <mxGeometry relative="1" as="geometry">
            <mxPoint x="860" y="210" as="targetPoint" />
          </mxGeometry>
        </mxCell>
        <mxCell id="re6lLt0kuD69fnyGJ5kz-6" value="Is&lt;br style=&quot;border-color: var(--border-color);&quot;&gt;amount to pay&lt;br style=&quot;border-color: var(--border-color);&quot;&gt;less than £0?" style="shape=hexagon;perimeter=hexagonPerimeter2;whiteSpace=wrap;html=1;fixedSize=1;fillColor=none;" parent="1" vertex="1">
          <mxGeometry x="800" y="240" width="120" height="60" as="geometry" />
        </mxCell>
        <mxCell id="_ii_MElEqdxS3bVGn6bL-6" style="edgeStyle=none;shape=connector;rounded=0;orthogonalLoop=1;jettySize=auto;html=1;exitX=0.5;exitY=0;exitDx=0;exitDy=0;labelBackgroundColor=default;strokeColor=default;fontFamily=Helvetica;fontSize=12;fontColor=default;endArrow=none;endFill=0;" parent="1" source="_ii_MElEqdxS3bVGn6bL-2" edge="1">
          <mxGeometry relative="1" as="geometry">
            <mxPoint x="460" y="620" as="targetPoint" />
          </mxGeometry>
        </mxCell>
        <mxCell id="_ii_MElEqdxS3bVGn6bL-2" value="Display discount&lt;div&gt;amount&lt;/div&gt;" style="rounded=0;whiteSpace=wrap;html=1;fillColor=none;" parent="1" vertex="1">
          <mxGeometry x="400" y="640" width="120" height="60" as="geometry" />
        </mxCell>
        <mxCell id="_ii_MElEqdxS3bVGn6bL-3" value="" style="endArrow=none;html=1;rounded=0;labelBackgroundColor=default;strokeColor=default;fontFamily=Helvetica;fontSize=12;fontColor=default;shape=connector;" parent="1" edge="1">
          <mxGeometry width="50" height="50" relative="1" as="geometry">
            <mxPoint x="460" y="620" as="sourcePoint" />
            <mxPoint x="620" y="620" as="targetPoint" />
          </mxGeometry>
        </mxCell>
        <mxCell id="UscxXCK1-TSAxhxeFgae-3" style="edgeStyle=orthogonalEdgeStyle;shape=connector;rounded=0;orthogonalLoop=1;jettySize=auto;html=1;exitX=0.5;exitY=1;exitDx=0;exitDy=0;entryX=0.5;entryY=0;entryDx=0;entryDy=0;strokeColor=default;align=center;verticalAlign=middle;fontFamily=Helvetica;fontSize=11;fontColor=default;labelBackgroundColor=default;endArrow=none;endFill=0;" edge="1" parent="1" source="UscxXCK1-TSAxhxeFgae-1" target="2BwgFsl3VLa_b2nYBKN8-10">
          <mxGeometry relative="1" as="geometry" />
        </mxCell>
        <mxCell id="UscxXCK1-TSAxhxeFgae-1" value="Round discount amount to 2 dp" style="rounded=0;whiteSpace=wrap;html=1;fillColor=none;" vertex="1" parent="1">
          <mxGeometry x="480" y="440" width="120" height="60" as="geometry" />
        </mxCell>
      </root>
    </mxGraphModel>
  </diagram>
</mxfile>
